<svg width="46" height="16" viewBox="0 0 46 16" fill="none" xmlns="http://www.w3.org/2000/svg">
<path d="M13.0814 12.68L8.76895 0.524902H6.36058L2.13049 12.3095C1.41003 14.3473 1.07039 14.7178 0 14.9134V15.4177H4.12717V14.9134C2.71714 14.6973 2.5113 14.2444 3.11854 12.3506L3.78753 10.3231H8.39843L9.16006 12.5874C9.71584 14.2753 9.45853 14.7178 8.15142 14.9134V15.4177H15.0678V14.9134C14.0283 14.7178 13.668 14.3267 13.0814 12.68ZM4.01396 9.60262L6.06211 3.32438L8.16171 9.60262H4.01396Z" fill="#FD665E"/>
<path d="M19.0826 5.05347L14.5334 5.60925V6.08269L15.0583 6.24736C15.6244 6.44292 15.717 6.58701 15.717 7.256V13.8018C15.717 14.5223 15.5523 14.7487 14.5334 14.9134V15.4177H20.4205V14.9134C19.2884 14.7281 19.1031 14.512 19.1031 13.6989V8.3058C19.556 7.88382 20.5955 7.61623 21.6144 7.61623C22.2011 7.61623 22.798 7.70886 23.0965 7.82207C23.22 7.57506 23.3332 7.14279 23.3332 6.70022C23.3332 5.77392 22.8907 5.03289 21.9644 5.03289C20.9249 5.03289 20.0603 5.90772 19.0723 7.95587L19.0826 5.05347Z" fill="#FD665E"/>
<path d="M28.6448 15.6236C30.4974 15.6236 32.0413 14.9134 32.8029 13.8224V13.3181C32.2883 13.8224 31.3929 14.1621 30.3945 14.1621C28.3464 14.1621 26.6893 12.5462 26.6893 9.71584C26.6893 7.35892 27.9244 5.85626 29.7873 5.85626C30.3431 5.85626 30.8371 5.99006 31.2282 6.23707C31.2076 6.22678 31.1973 6.22678 31.1767 6.22678C30.3842 6.22678 29.7358 6.88548 29.7358 7.71915C29.7358 8.55282 30.4048 9.21152 31.2488 9.21152C32.0721 9.21152 32.7617 8.56311 32.7617 7.6574C32.7617 6.17532 31.3517 4.99172 28.8713 4.99172C25.5983 4.99172 23.19 7.17366 23.19 10.3231C23.19 13.5857 25.6086 15.6236 28.6448 15.6236Z" fill="#FD665E"/>
<path d="M37.5278 0L32.9581 0.555779V1.02922L33.483 1.20419C34.0594 1.39974 34.1417 1.54383 34.1417 2.21282V13.7813C34.1417 14.5223 33.9564 14.7384 32.9581 14.9134V15.4177H38.557V14.9134C37.6616 14.7487 37.5278 14.5635 37.5278 13.843V7.36921C37.8366 6.79285 38.485 6.40175 39.329 6.40175C40.492 6.40175 41.1713 7.09132 41.1713 8.47048V13.843C41.1713 14.5635 41.0169 14.759 40.142 14.9134V15.4177H45.741V14.9134C44.7221 14.7384 44.5471 14.5223 44.5471 13.7813V8.27493C44.5471 6.05181 43.1371 4.99172 41.0478 4.99172C39.3084 4.99172 38.0424 5.78422 37.5072 6.94723L37.5278 0Z" fill="#FD665E"/>
</svg>
