<svg width="30" height="30" viewBox="0 0 30 30" fill="none" xmlns="http://www.w3.org/2000/svg">
<path d="M0.61731 2.7658C1.64226 3.2324 2.60984 4.20681 3.12985 5.72637C4.52992 9.81764 9.00413 12.6055 12.8814 10.4869C14.4175 9.64752 17.0678 10.5549 18.0666 13.4738C19.4667 17.5651 23.9409 20.353 27.8182 18.2343C28.2141 18.018 28.6841 17.9177 29.1807 17.938V20.8486C27.6892 20.3765 26.0646 20.4478 24.5332 21.2847C22.9971 22.124 20.3468 21.2166 19.3479 18.2978C17.9479 14.2065 13.4737 11.4186 9.59642 13.5372C8.06026 14.3766 5.41001 13.4692 4.41115 10.5503C3.73129 8.56367 2.32656 6.88433 0.61731 5.92488V2.7658Z" fill="black"/>
<path d="M3.34651 0.718262C4.6056 1.70323 5.61557 3.09764 6.16026 4.68932C7.15912 7.60817 9.80937 8.5156 11.3455 7.6762C15.2228 5.55758 19.697 8.34548 21.097 12.4368C22.0959 15.3556 24.7462 16.263 26.2823 15.4236C27.2306 14.9054 28.2147 14.6808 29.1807 14.6969V0.718262H3.34651Z" fill="black"/>
<path d="M0.61731 10.0918V13.1773C1.49007 14.0722 2.1856 15.1811 2.60511 16.407C3.60398 19.3258 6.25422 20.2333 7.79038 19.3939C11.6676 17.2752 16.1418 20.0631 17.5419 24.1544C18.5408 27.0733 21.191 27.9807 22.7272 27.1413C24.9071 25.9501 27.2758 26.31 29.1807 27.5805V24.3555C28.1153 23.7016 26.9209 23.6299 26.069 24.0954C22.1918 26.214 17.7176 23.4261 16.3175 19.3348C15.3187 16.416 12.6684 15.5085 11.1323 16.3479C7.25502 18.4666 2.78081 15.6787 1.38073 11.5874C1.18353 11.0111 0.921964 10.5133 0.61731 10.0918Z" fill="black"/>
<path d="M17.4814 29.2816C16.1498 28.2916 15.0785 26.8484 14.5115 25.1915C13.5126 22.2726 10.8624 21.3652 9.32622 22.2046C6.15185 23.9391 2.57732 22.3848 0.61731 19.5191V29.2816H17.4814Z" fill="black"/>
</svg>
