<svg width="20" height="24" viewBox="0 0 20 24" fill="none" xmlns="http://www.w3.org/2000/svg">
<path fill-rule="evenodd" clip-rule="evenodd" d="M11.0814 1.12621C11.7146 0.493087 12.7411 0.493087 13.3742 1.12621L19.303 7.05507L13.3472 12.7402C12.6995 13.3584 11.6733 13.3345 11.0551 12.6869C10.4369 12.0392 10.4607 11.013 11.1084 10.3948L12.937 8.6493H8.9854C5.82178 8.6493 3.25715 11.2139 3.25715 14.3775C3.25715 17.5412 5.82178 20.1058 8.9854 20.1058H16.9833C17.8787 20.1058 18.6045 20.8316 18.6045 21.727C18.6045 22.6224 17.8787 23.3482 16.9833 23.3482H8.9854C4.03105 23.3482 0.0147476 19.3319 0.0147476 14.3775C0.0147476 9.42319 4.03104 5.40689 8.9854 5.40689H13.0694L11.0814 3.41893C10.4483 2.78581 10.4483 1.75933 11.0814 1.12621Z" fill="black"/>
</svg>
