<svg width="17" height="26" viewBox="0 0 17 26" fill="none" xmlns="http://www.w3.org/2000/svg">
<path d="M15.8345 19.915C15.9614 21.4307 15.4484 22.9906 14.2937 24.1555C13.139 25.3205 11.5837 25.8472 10.0669 25.7337C9.93995 24.2179 10.4529 22.658 11.6076 21.4931C12.7624 20.3281 14.3176 19.8014 15.8345 19.915Z" fill="black"/>
<path d="M13.0869 17.8086C11.5731 19.4275 9.38621 20.398 6.9986 20.2889C4.61126 20.1799 2.52211 19.0143 1.16216 17.2645C2.67596 15.6457 4.86288 14.6752 7.25048 14.7842C9.63783 14.8933 11.727 16.0588 13.0869 17.8086Z" fill="black"/>
<path d="M0.272278 12.5987C0.588504 8.80801 2.50099 5.17431 5.83228 2.7808C9.16346 0.38737 13.2173 -0.265831 16.9106 0.643774C16.5944 4.43447 14.6819 8.06817 11.3506 10.4617C8.01943 12.8551 3.96564 13.5083 0.272278 12.5987Z" fill="black"/>
</svg>
