<svg width="52" height="11" viewBox="0 0 52 11" fill="none" xmlns="http://www.w3.org/2000/svg">
<path d="M5.26194 0.429917L0.712791 0.985696V1.45914L1.23769 1.62381C1.81406 1.81936 1.89639 1.96345 1.89639 2.63245V9.1577C1.89639 9.89874 1.71113 10.1149 0.712791 10.2898V10.7942H6.31175V10.2898C5.41633 10.1355 5.28253 9.93991 5.28253 9.21945V2.74566C5.59129 2.17959 6.17795 1.7782 7.01162 1.7782C8.0923 1.7782 8.70983 2.45748 8.70983 3.82634V9.21945C8.70983 9.93991 8.58632 10.1355 7.6909 10.2898V10.7942H13.1252V10.2898C12.2298 10.1355 12.096 9.93991 12.096 9.21945V3.47641C12.096 3.18823 12.0754 2.94121 12.0239 2.6942C12.343 2.13842 12.9605 1.7782 13.7942 1.7782C14.8851 1.7782 15.5233 2.45748 15.5233 3.82634V9.21945C15.5233 9.93991 15.3895 10.1252 14.494 10.2898V10.7942H20.093V10.2898C19.0844 10.1149 18.9094 9.89874 18.9094 9.1577V3.63079C18.9094 1.45914 17.5611 0.368164 15.513 0.368164C13.7942 0.368164 12.4665 1.19154 11.9622 2.35456C11.5916 1.06803 10.3772 0.368164 8.76129 0.368164C7.01162 0.368164 5.75597 1.19154 5.26194 2.34427V0.429917Z" fill="#FD665E"/>
<path d="M26.0839 11C29.398 11 31.8784 8.79747 31.8784 5.63777C31.8784 2.41631 29.4186 0.368164 26.1251 0.368164C22.8213 0.368164 20.3408 2.5604 20.3408 5.72011C20.3408 8.95186 22.8007 11 26.0839 11ZM26.1559 10.3207C24.7768 10.3207 23.9225 8.55046 23.9225 5.60689C23.9225 2.76625 24.6636 1.04745 26.0633 1.04745C27.4322 1.04745 28.2864 2.80742 28.2864 5.75098C28.2864 8.59163 27.5454 10.3207 26.1559 10.3207Z" fill="#FD665E"/>
<path d="M32.8364 2.76625L35.9241 10.8147H37.7766L40.7202 3.18823C41.3583 1.53118 41.6465 1.243 42.4699 1.07833V0.563716H39.0323V1.07833C40.1953 1.243 40.3291 1.57235 39.8454 3.10589L38.2192 7.98439L36.593 3.0853C36.1196 1.57235 36.2534 1.23271 37.4473 1.07833V0.563716H31.2617V1.07833C32.0748 1.25329 32.3527 1.54147 32.8364 2.76625Z" fill="#FD665E"/>
<path d="M41.6679 5.69952C41.6679 8.97244 44.0866 11 47.1537 11C49.068 11 50.6324 10.3104 51.3838 9.17829L51.3735 8.67397C50.8589 9.19887 49.9943 9.57968 48.9857 9.57968C46.9067 9.57968 45.3731 8.06673 45.1055 5.39076H51.5176C51.5381 5.21579 51.569 4.94819 51.569 4.6806C51.569 2.12813 49.8605 0.368164 47.0096 0.368164C43.7984 0.368164 41.6679 2.57069 41.6679 5.69952ZM45.0541 4.50563C45.0541 2.29281 45.7642 1.04745 47.0096 1.04745C48.1005 1.04745 48.5946 2.22076 48.5946 4.05277C48.5946 4.35124 48.5946 4.56738 48.5843 4.76293L45.0644 4.8041C45.0541 4.70118 45.0541 4.60855 45.0541 4.50563Z" fill="#FD665E"/>
</svg>
