<svg width="33" height="32" viewBox="0 0 33 32" fill="none" xmlns="http://www.w3.org/2000/svg">
<path fill-rule="evenodd" clip-rule="evenodd" d="M31.8081 14.8073C32.414 17.6975 32.1337 20.3858 31.1546 22.6275L31.2065 22.6267C30.3671 24.924 27.575 29.7306 21.0012 31.109C20.7511 31.1615 20.5013 31.203 20.2521 31.2342C19.625 31.3264 18.9744 31.3741 18.3028 31.3741C10.5176 31.3741 2.86299 24.9656 1.20572 17.0603C0.416311 13.2947 1.13004 9.86878 2.93541 7.31329C3.77398 5.69909 8.17343 1.78429 11.7237 1.02358C11.8202 1.00291 11.913 0.986721 12.0022 0.974838C12.9402 0.746506 13.9407 0.625977 14.9939 0.625977C22.6382 0.625977 30.1662 6.97518 31.8081 14.8073ZM29.132 14.1443C30.421 20.2929 26.5989 25.2773 20.595 25.2773C14.5912 25.2773 8.67922 20.2929 7.39023 14.1443C6.10124 7.99572 9.92337 3.0113 15.9272 3.0113C21.931 3.0113 27.843 7.99572 29.132 14.1443ZM20.2285 21.8316C24.6724 21.8316 27.5198 18.2301 26.5885 13.7875C25.6571 9.34484 21.2997 5.74337 16.8558 5.74337C12.412 5.74337 9.56454 9.34484 10.4959 13.7875C11.4272 18.2301 15.7847 21.8316 20.2285 21.8316ZM24.1871 13.454C24.7714 16.241 22.9366 18.5003 20.0891 18.5003C17.2415 18.5003 14.4595 16.241 13.8752 13.454C13.291 10.667 15.1257 8.40776 17.9733 8.40776C20.8208 8.40776 23.6029 10.667 24.1871 13.454ZM21.5762 13.4543C21.8645 14.8298 20.959 15.9448 19.5536 15.9448C18.1482 15.9448 16.7752 14.8298 16.4868 13.4543C16.1985 12.0788 17.104 10.9638 18.5094 10.9638C19.9148 10.9638 21.2878 12.0788 21.5762 13.4543Z" fill="black"/>
</svg>
